<?xml version="1.0" encoding="UTF-8"?>
<svg width="1166px" height="1166px" viewBox="0 0 1166 1166" version="1.1" xmlns="http://www.w3.org/2000/svg" xmlns:xlink="http://www.w3.org/1999/xlink">
    <title>Trebuchet</title>
    <g id="Page-1" stroke="none" stroke-width="1" fill="none" fill-rule="evenodd">
        <g id="Apple-TV-4K" transform="translate(-1204.000000, -508.000000)">
            <g id="Group-2" transform="translate(1204.000000, 508.000000)">
                <circle id="Oval" fill="#000000" cx="583" cy="583" r="583"></circle>
                <g id="Group" transform="translate(224.432800, 121.019900)" fill="#FFFFFF" fill-rule="nonzero">
                    <polygon id="Fill-6" points="432.8222 334.9073 458.8752 319.8983 459.7042 319.4213 460.5552 318.9293 460.6972 316.3053 461.5372 300.7333 433.8292 316.7493 433.3142 325.3103"></polygon>
                    <polygon id="Path" points="440.6562 331.9973 440.6472 332.1763 440.6442 332.2233 440.6472 332.1763 440.6062 332.1253 440.5242 332.0243 440.5712 331.9973 440.6582 331.9463"></polygon>
                    <polygon id="Path" points="562.5342 470.1913 575.7282 462.4873 576.0562 462.2933 576.0562 462.2953 576.0612 462.2923 519.2152 391.7193 507.9352 377.7173 507.9012 377.6743 492.9722 359.1403 463.7562 322.8693 460.5742 318.9193 459.7042 319.4213 458.8742 319.9013 432.8202 334.9583 432.8102 335.1363 444.0682 349.0983 453.4972 360.7913 461.0132 370.1123 463.5762 373.2873 506.7172 426.7113 517.8872 440.5443 548.4372 478.3763 558.5792 472.5003"></polygon>
                    <polygon id="Fill-12" points="83.6162 766.6226 253.0532 805.6936 253.0532 785.9646 109.1472 752.6966"></polygon>
                    <polygon id="Fill-14" points="220.1714 530.6492 205.4714 526.7812 83.6164 766.6222 109.1474 752.6962"></polygon>
                    <polygon id="Fill-16" points="221.4599 494.3321 253.1689 501.0431 253.3629 481.7911 246.0429 480.1561"></polygon>
                    <polygon id="Fill-18" points="246.043 480.1562 253.42 465.9032 253.424 431.2962 221.46 494.3322"></polygon>
                    <polygon id="Fill-20" points="0 747.6648 54.797 761.0358 64.235 742.1588 25.17 732.7198"></polygon>
                    <polygon id="Fill-22" points="313.8186 513.8991 305.7676 494.1271 282.6836 507.3011"></polygon>
                    <polygon id="Fill-24" points="282.5698 437.9922 282.6838 507.3002 305.7508 494.1272"></polygon>
                    <path d="M285.6896,505.5845 L282.6836,507.3005 L285.6896,505.5845 Z" id="Fill-26"></path>
                    <polygon id="Fill-28" points="307.5673 550.4542 282.2473 544.3022 282.4533 812.6102 294.8683 805.6072 307.2823 798.6032"></polygon>
                    <polygon id="Fill-30" points="210.333 626.6393 253.599 637.1973 253.667 616.0833 235.503 611.6943"></polygon>
                    <polygon id="Fill-32" points="327.4165 216.918 343.6435 234.607 343.7105 234.568 343.6625 234.562"></polygon>
                    <polygon id="Fill-34" points="360.643 236.7627 360.431 236.7347 381.318 259.5057 387.504 266.2487 387.554 266.2197"></polygon>
                    <path d="M352.4951,235.7112 C353.1411,235.7922 353.6841,235.8612 354.2961,235.9402 L360.4311,236.7352 L360.3951,236.6962 L353.3921,235.8232 L343.7181,234.5682 L343.6451,234.6112 L352.4951,235.7112 Z" id="Fill-36"></path>
                    <polygon id="Fill-38" points="463.5766 373.2871 463.5766 373.3201 487.9706 403.5551 488.0016 403.5831 503.2186 422.4541 506.6366 426.6921 506.7166 426.7111"></polygon>
                    <polygon id="Fill-40" points="360.4087 236.6951 388.1687 220.6511 360.3997 236.6941"></polygon>
                    <polygon id="Fill-42" points="577.5171 523.5911 577.2411 523.5271 580.0611 569.2461 582.8231 613.9941 580.1921 569.1721"></polygon>
                    <polygon id="Fill-44" points="432.8105 335.1368 432.8085 335.1848 444.0555 349.1248 444.0685 349.0988"></polygon>
                    <polygon id="Fill-46" points="517.8872 440.6358 548.3672 478.4148 548.3662 478.4448 548.3762 478.4588 548.4082 478.4398 548.4112 478.3908 548.4372 478.3768 517.8872 440.5448"></polygon>
                    <polygon id="Fill-48" points="461.5434 300.6092 433.8294 316.7492 461.5374 300.7332"></polygon>
                    <path d="M458.874,319.9009 L432.822,334.9069 L433.314,325.3109 L433.829,316.7489 L417.442,298.8859 L417.412,298.9029 L433.751,316.7889 L433.372,324.2049 C433.333,324.9339 433.299,325.5439 433.259,326.2369 L432.735,334.9579 L432.688,334.9849 L432.77,335.0859 L432.811,335.1369 L432.82,334.9579 L458.874,319.9009 Z" id="Fill-50"></path>
                    <polygon id="Fill-52" points="588.8926 488.9009 623.9826 497.0779 517.7176 241.2309 492.1126 255.8909"></polygon>
                    <polygon id="Fill-54" points="693.0395 739.6491 718.6435 724.9901 655.8105 573.7101 630.1785 588.3011"></polygon>
                    <polygon id="Fill-56" points="282.4531 812.6097 453.0751 853.0367 443.6841 830.5957 307.2831 798.6037"></polygon>
                    <path d="M294.8681,805.6067 L307.2831,798.6037 L294.8681,805.6067 Z" id="Fill-58"></path>
                    <polygon id="Fill-60" points="516.103 372.9942 516.052 373.0232 516.084 373.1012 507.936 377.7172 519.215 391.7192 524.154 392.7662"></polygon>
                    <polygon id="Fill-62" points="663.4082 732.0115 654.0182 709.5695 517.6162 677.5785 492.7862 691.5845"></polygon>
                    <polygon id="Fill-64" points="517.8545 469.1946 492.5945 441.1236 492.6955 572.5486 517.8085 509.6996"></polygon>
                    <polygon id="Fill-66" points="506.7168 426.7111 506.6368 426.6921 517.8868 440.6361 517.8868 440.5441"></polygon>
                    <polygon id="Fill-68" points="492.7866 691.5843 517.6166 677.5783 517.7046 600.3753 492.7126 594.6853"></polygon>
                    <polygon id="Fill-70" points="463.3857 664.939 429.8847 657.194 438.9567 679.035 463.3857 684.668"></polygon>
                    <polygon id="Fill-72" points="319.4809 631.6707 307.4659 638.2237 307.4539 648.7107 403.9059 670.9527 394.8249 649.0887"></polygon>
                    <path d="M307.4663,638.2242 L307.4543,648.7112 L307.4663,638.2242 Z" id="Fill-74"></path>
                    <polygon id="Fill-76" points="415.8042 405.7554 366.0922 503.6024 373.9972 522.6374 430.5042 409.6234"></polygon>
                    <polygon id="Fill-78" points="461.0132 370.1126 453.4972 360.7906 453.4772 360.8026 463.5762 373.3206 463.5762 373.2876"></polygon>
                    <polygon id="Fill-80" points="444.0683 349.0984 444.0553 349.1244 453.4773 360.8024 453.4973 360.7914"></polygon>
                    <polygon id="Fill-82" points="458.874 319.9009 459.704 319.4209 458.875 319.8989"></polygon>
                    <polygon id="Fill-84" points="516.0517 373.0232 507.9017 377.6742 507.9357 377.7172 516.0837 373.1012"></polygon>
                    <polygon id="Fill-86" points="383.1758 290.666 355.6808 284.572 254.5538 342.717 281.8438 348.929"></polygon>
                    <polygon id="Fill-88" points="517.7812 213.2451 490.4912 207.0321 415.3352 250.2231 428.5052 264.5661"></polygon>
                    <polygon id="Fill-90" points="387.5537 266.22 387.5037 266.249 400.6647 280.596 400.6787 280.588"></polygon>
                    <polygon id="Fill-92" points="539.8623 853.3018 514.1353 867.9938 514.1523 902.9048 539.7603 888.2638 724.4853 781.8788 750.0933 767.2378 750.1953 732.2758 724.4683 746.9678"></polygon>
                    <polygon id="Fill-94" points="693.0395 739.6491 508.3105 846.0151 482.7065 860.6751 514.1355 867.9941 539.8625 853.3021 724.4685 746.9681 750.1955 732.2761 718.6435 724.9901"></polygon>
                    <polygon id="Fill-96" points="307.4663 638.2242 319.4813 631.6712 354.6333 561.3672 338.6293 557.6562 307.4883 618.9482"></polygon>
                    <path d="M307.4663,638.2242 L307.4883,618.9492 L307.4663,638.2242 Z" id="Fill-98"></path>
                    <polygon id="Fill-100" points="438.9565 679.0347 429.8845 657.1947 393.8615 570.4637 373.9975 522.6377 366.0915 503.6027 307.3845 362.2567 281.7795 376.9157 348.6535 537.9247 356.6855 557.2617 358.7905 562.3317 394.8255 649.0887 403.9065 670.9527 482.7065 860.6747 508.3105 846.0147"></polygon>
                    <polygon id="Fill-102" points="383.1831 318.6119 383.1753 290.6753 281.8438 348.929 281.7801 376.9159"></polygon>
                    <polygon id="Fill-104" points="406.001 286.4126 417.412 298.9026 417.442 298.8856"></polygon>
                    <polygon id="Fill-106" points="400.687 280.596 400.673 280.604 405.955 286.363"></polygon>
                    <polygon id="Fill-108" points="428.5049 264.5762 445.2921 282.8495 517.7171 241.2315 517.7821 213.2445"></polygon>
                    <polygon id="Fill-110" points="428.5049 264.5662 428.5139 264.5762 492.0549 227.9982 517.7819 213.2442 492.1769 227.9042"></polygon>
                    <polygon id="Fill-112" points="400.6792 280.5877 400.6652 280.5957 400.6732 280.6037 400.6872 280.5957"></polygon>
                    <polygon id="Fill-114" points="307.1948 334.4153 307.4428 334.2733 383.1768 290.6753 383.1758 290.6663"></polygon>
                    <path d="M623.9824,497.0785 L598.3614,511.6975 L587.1164,518.1135 L578.4224,523.0745 C577.8684,523.3905 577.5404,523.9945 577.5784,524.6315 L580.1914,569.1725 L582.8224,613.9945 L582.8984,615.2145 L630.1784,588.3015 L655.8114,573.7105 C656.5574,573.2855 656.8634,572.3655 656.5194,571.5785 L623.9824,497.0785 Z" id="Fill-116"></path>
                    <path d="M547.897,492.536 L547.824,494.185 L547.897,492.536 Z" id="Fill-118"></path>
                    <path d="M547.7925,494.9107 L547.4735,502.1097 L547.7925,494.9107 Z" id="Fill-120"></path>
                    <polygon id="Fill-122" points="588.8926 488.9009 574.6626 485.5849 574.6106 486.4339 571.4036 488.2869 547.4736 502.1139 547.4736 502.1089 541.9256 495.9439 517.8436 509.6839 517.8446 509.7089 577.2406 523.5269 577.5176 523.5909 587.1166 518.1139 598.3616 511.6979 623.9826 497.0789"></polygon>
                    <polygon id="Fill-124" points="327.4165 216.918 343.6625 234.562 343.7105 234.568 371.4255 218.556 170.9385 -1.13686838e-13 143.1225 16.013 327.3845 216.883 327.4005 216.9"></polygon>
                    <polygon id="Fill-126" points="461.6518 300.667 388.1778 220.646 388.1688 220.651 360.4088 236.695 360.3998 236.694 360.4308 236.735 360.6428 236.763 433.8288 316.749 461.5438 300.609 461.5368 300.733"></polygon>
                    <polygon id="Path" points="360.3999 236.6942 388.1689 220.6512 371.4419 218.5522 343.7179 234.5682 353.3929 235.8232"></polygon>
                    <polygon id="Fill-130" points="517.8545 469.1946 517.8545 468.9786 492.5945 440.9476 492.5945 441.1236"></polygon>
                    <path d="M380.2983,290.0284 L383.1753,290.6664 L380.2983,290.0284 Z" id="Fill-132"></path>
                    <polygon id="Fill-136" points="406.001 286.4126 405.978 286.3866 405.985 286.3956"></polygon>
                    <path d="" id="Fill-138"></path>
                    <polygon id="Fill-140" points="568.875 485.2049 568.933 484.2489 568.62 485.3519"></polygon>
                    <path d="M177.4205,221.761 C165.4225,166.748 168.7185,181.37 162.4255,154.884 C160.0895,146.819 154.0595,147.332 151.8175,147.388 C151.8175,147.388 142.2235,147.7 142.3685,159.58 L142.2955,191.352 C142.2865,191.351 142.2755,191.352 142.2665,191.351 L142.2665,236.819 L142.2665,236.839 C142.2605,247.88 132.4835,256.697 121.1155,254.968 C115.3525,254.091 110.4635,250.557 107.7695,245.633 C113.9645,257.569 126.4285,265.729 140.8055,265.729 C153.4005,265.729 164.5255,259.464 171.2575,249.888 C171.2615,249.882 171.2665,249.876 171.2715,249.87 C176.9185,241.825 179.2145,231.834 177.3985,221.864 L177.4205,221.761 Z" id="Fill-142"></path>
                    <path d="M574.6105,486.4343 L576.0565,462.2953 L548.3672,478.4148 L547.4745,502.1103 L547.4735,502.1133 L574.6105,486.4343 Z" id="Path"></path>
                </g>
            </g>
        </g>
    </g>
</svg>